<svg width="92" height="24" viewBox="0 0 92 24" fill="none" xmlns="http://www.w3.org/2000/svg">
<path d="M39.3219 13.8554C39.0894 13.6172 38.9735 13.2887 38.9735 12.8694V8.01817C38.9735 7.97785 39.0057 7.94485 39.0451 7.94485H41.3889C41.4282 7.94485 41.4604 7.91186 41.4604 7.87154V7.36494C41.4604 7.32462 41.4282 7.29163 41.3889 7.29163H39.0451C39.0057 7.29163 38.9735 7.25864 38.9735 7.21831V4.8686C38.9735 4.82828 38.9413 4.79529 38.902 4.79529H38.8311C38.8161 4.79529 38.8011 4.80042 38.7889 4.80921L34.9119 7.72271C34.8933 7.73664 34.8825 7.75864 34.8825 7.7821V7.88107C34.8825 7.92139 34.9147 7.95439 34.9541 7.95439H36.6948C36.7341 7.95439 36.7663 7.98738 36.7663 8.0277V13.2601C36.7663 14.1897 37.026 14.9265 37.5462 15.4713C38.0663 16.0043 38.7854 16.2704 39.704 16.2704H40.9103C40.9496 16.2704 40.9818 16.2374 40.9818 16.1971V14.2858C40.9818 14.2455 40.9496 14.2125 40.9103 14.2125H40.2842C39.875 14.2125 39.5545 14.093 39.3219 13.8554Z" fill="#190600"/>
<path d="M78.0406 7.62016H75.9765C75.937 7.62016 75.905 7.65299 75.905 7.69348V16.203C75.905 16.2435 75.937 16.2763 75.9765 16.2763H78.0406C78.0801 16.2763 78.1122 16.2435 78.1122 16.203V7.69348C78.1122 7.65299 78.0801 7.62016 78.0406 7.62016Z" fill="#190600"/>
<path d="M23.0848 12.5211C23.0848 13.0996 22.9274 13.5666 22.6126 13.9229C22.2978 14.28 21.8849 14.4581 21.3748 14.4581C21.0278 14.4581 20.7259 14.3797 20.4712 14.2242C20.2158 14.0681 20.0176 13.8423 19.8767 13.5475C19.7357 13.2528 19.6656 12.9104 19.6656 12.5211V7.85471C19.6656 7.81439 19.6334 7.7814 19.5941 7.7814H17.5707C17.5314 7.7814 17.4992 7.81439 17.4992 7.85471V12.4713C17.4992 13.2616 17.6545 13.9596 17.9635 14.5659C18.2733 15.1729 18.7205 15.6429 19.3072 15.9772C19.8938 16.3115 20.5828 16.4772 21.3755 16.4772C22.1683 16.4772 22.8444 16.3115 23.4361 15.9772C24.0277 15.6429 24.4785 15.1729 24.7883 14.5659C25.0981 13.9603 25.2519 13.2624 25.2519 12.4713V7.85471C25.2519 7.81439 25.2197 7.7814 25.1803 7.7814H23.1577C23.1184 7.7814 23.0862 7.81439 23.0862 7.85471V12.5211H23.0848Z" fill="#190600"/>
<path d="M33.0921 8.14146C32.4024 7.76829 31.6676 7.58208 30.8856 7.58208C30.1036 7.58208 29.3524 7.76829 28.662 8.14146C27.973 8.5139 27.4214 9.03956 27.0093 9.71845C26.5965 10.3973 26.3904 11.1701 26.3904 12.0381C26.3904 12.9061 26.5965 13.6627 27.0093 14.3416C27.4214 15.019 27.973 15.5447 28.662 15.9186C29.3517 16.291 30.0929 16.4765 30.8856 16.4765C31.6783 16.4765 32.4024 16.2903 33.0921 15.9186C33.7811 15.5454 34.3355 15.0198 34.7534 14.3416C35.1712 13.6627 35.3801 12.8951 35.3801 12.0381C35.3801 11.1811 35.1705 10.3973 34.7534 9.71845C34.3355 9.03956 33.7811 8.5139 33.0921 8.14146ZM32.8968 13.2727C32.6957 13.6393 32.4188 13.9303 32.0661 14.1407C31.7127 14.3526 31.3192 14.4582 30.8849 14.4582C30.4506 14.4582 30.0571 14.3526 29.7037 14.1407C29.351 13.9303 29.0741 13.6393 28.873 13.2727C28.672 12.9061 28.5718 12.4948 28.5718 12.0381C28.5718 11.5814 28.6727 11.1539 28.873 10.7859C29.0741 10.4193 29.351 10.1297 29.7037 9.91786C30.0571 9.70745 30.4506 9.60114 30.8849 9.60114C31.3192 9.60114 31.7127 9.70672 32.0661 9.91786C32.4188 10.1297 32.6957 10.4193 32.8968 10.7859C33.0978 11.1539 33.198 11.5711 33.198 12.0381C33.198 12.5051 33.0971 12.9061 32.8968 13.2727Z" fill="#190600"/>
<path d="M48.3437 8.58941C48.3437 8.65539 48.2665 8.68692 48.2214 8.64C48.1033 8.51683 47.976 8.40246 47.8393 8.29909C47.546 8.07768 47.2119 7.90246 46.837 7.77343C46.4628 7.64586 46.0521 7.58208 45.6078 7.58208C44.8909 7.58208 44.2098 7.76829 43.563 8.14146C42.917 8.5139 42.399 9.03956 42.0076 9.71845C41.617 10.3973 41.4217 11.1701 41.4217 12.0381C41.4217 12.9061 41.617 13.6627 42.0076 14.3416C42.3983 15.019 42.917 15.5447 43.563 15.9186C44.2091 16.291 44.8902 16.4765 45.6078 16.4765C46.2696 16.4765 46.8513 16.3409 47.35 16.0674C47.6784 15.8893 47.9688 15.6671 48.2214 15.4039C48.2657 15.3578 48.343 15.39 48.343 15.4553V16.2031C48.343 16.2434 48.3752 16.2764 48.4146 16.2764H50.3069C50.3463 16.2764 50.3785 16.2434 50.3785 16.2031V7.8548C50.3785 7.81448 50.3463 7.78149 50.3069 7.78149H48.4146C48.3752 7.78149 48.343 7.81448 48.343 7.8548L48.3437 8.58941ZM48.0017 13.2727C47.7957 13.6393 47.5131 13.9303 47.1546 14.1407C46.7969 14.3526 46.3998 14.4582 45.9655 14.4582C45.5313 14.4582 45.1349 14.3526 44.7765 14.1407C44.4187 13.9303 44.1354 13.6393 43.9294 13.2727C43.7233 12.9061 43.6196 12.4948 43.6196 12.0381C43.6196 11.5814 43.7226 11.1539 43.9294 10.7859C44.1354 10.4193 44.4187 10.1297 44.7765 9.91786C45.1349 9.70745 45.5313 9.60114 45.9655 9.60114C46.3998 9.60114 46.7969 9.70672 47.1546 9.91786C47.5131 10.1297 47.7957 10.4193 48.0017 10.7859C48.2078 11.1539 48.3115 11.5711 48.3115 12.0381C48.3115 12.5051 48.2085 12.9061 48.0017 13.2727Z" fill="#190600"/>
<path d="M54.3149 4.26089H52.2916C52.2521 4.26089 52.22 4.29372 52.22 4.33421V16.203C52.22 16.2435 52.2521 16.2763 52.2916 16.2763H54.3149C54.3544 16.2763 54.3864 16.2435 54.3864 16.203V4.33421C54.3864 4.29372 54.3544 4.26089 54.3149 4.26089Z" fill="#190600"/>
<path d="M62.3749 8.14146C61.6852 7.76829 60.9504 7.58208 60.1684 7.58208C59.3865 7.58208 58.6352 7.76829 57.9448 8.14146C57.2558 8.5139 56.7042 9.03956 56.2921 9.71845C55.8793 10.3973 55.6732 11.1701 55.6732 12.0381C55.6732 12.9061 55.8793 13.6627 56.2921 14.3416C56.7042 15.019 57.2558 15.5447 57.9448 15.9186C58.6345 16.291 59.3757 16.4765 60.1684 16.4765C60.9612 16.4765 61.6852 16.2903 62.3749 15.9186C63.0639 15.5454 63.6184 15.0198 64.0362 14.3416C64.454 13.6627 64.6629 12.8951 64.6629 12.0381C64.6629 11.1811 64.4533 10.3973 64.0362 9.71845C63.6184 9.03956 63.0639 8.5139 62.3749 8.14146ZM62.1796 13.2727C61.9786 13.6393 61.7017 13.9303 61.3489 14.1407C60.9955 14.3526 60.602 14.4582 60.1677 14.4582C59.7335 14.4582 59.34 14.3526 58.9865 14.1407C58.6338 13.9303 58.3569 13.6393 58.1559 13.2727C57.9548 12.9061 57.8547 12.4948 57.8547 12.0381C57.8547 11.5814 57.9555 11.1539 58.1559 10.7859C58.3569 10.4193 58.6338 10.1297 58.9865 9.91786C59.34 9.70745 59.7335 9.60114 60.1677 9.60114C60.602 9.60114 60.9955 9.70672 61.3489 9.91786C61.7017 10.1297 61.9786 10.4193 62.1796 10.7859C62.3806 11.1539 62.4808 11.5711 62.4808 12.0381C62.4808 12.5051 62.3799 12.9061 62.1796 13.2727Z" fill="#190600"/>
<path d="M72.09 8.58574C72.09 8.65173 72.012 8.68399 71.9677 8.63633C71.7201 8.37387 71.4325 8.15539 71.1048 7.98237C70.5997 7.71477 70.0159 7.58208 69.3541 7.58208C68.6923 7.58208 68.0191 7.7573 67.3995 8.10774C66.7806 8.45818 66.2834 8.95671 65.9092 9.60188C65.535 10.247 65.3475 10.9926 65.3475 11.8372C65.3475 12.6818 65.535 13.4127 65.9092 14.0579C66.2834 14.7031 66.7806 15.2001 67.3995 15.5506C68.0183 15.9025 68.6701 16.0777 69.3541 16.0777C70.0381 16.0777 70.5782 15.9457 71.0726 15.6855C71.3667 15.5293 71.6221 15.349 71.841 15.1444C71.8868 15.1012 71.9605 15.1349 71.9605 15.1987V15.7771C71.9605 16.2229 71.8761 16.6151 71.7079 16.9545C71.5398 17.2925 71.2901 17.5579 70.9589 17.7463C70.6276 17.9362 70.2277 18.0301 69.7612 18.0301C69.4242 18.0301 69.118 17.9773 68.8411 17.8724C68.5642 17.7669 68.3331 17.61 68.1486 17.404C67.9733 17.2097 67.833 16.9729 67.7264 16.6921C67.7157 16.6642 67.6899 16.6452 67.6599 16.6452H65.6323C65.5865 16.6452 65.5515 16.6891 65.5622 16.7353C65.7067 17.3658 65.9521 17.9201 66.2998 18.3988C66.664 18.8988 67.1405 19.2911 67.7329 19.5748C68.3246 19.8585 69.0121 20 69.7934 20C70.7385 20 71.5362 19.8028 72.188 19.4076C72.8398 19.0125 73.3249 18.4758 73.6461 17.7969C73.9659 17.118 74.1269 16.3614 74.1269 15.5271V7.8548C74.1269 7.81448 74.0947 7.78149 74.0554 7.78149H72.163C72.1236 7.78149 72.0914 7.81448 72.0914 7.8548V8.58574H72.09ZM71.7716 12.997C71.5813 13.3475 71.313 13.6231 70.966 13.824C70.6183 14.0234 70.227 14.1239 69.7934 14.1239C69.3598 14.1239 68.9813 14.0234 68.6293 13.824C68.2766 13.6231 68.0047 13.3475 67.8152 12.997C67.6256 12.6466 67.5304 12.261 67.5304 11.8372C67.5304 11.4135 67.6256 11.0117 67.8152 10.6613C68.0055 10.3108 68.2773 10.0381 68.6293 9.84381C68.9813 9.64953 69.3705 9.55202 69.7934 9.55202C70.2162 9.55202 70.6183 9.64953 70.966 9.84381C71.313 10.0381 71.5813 10.3108 71.7716 10.6613C71.9619 11.0117 72.0564 11.4039 72.0564 11.8372C72.0564 12.2705 71.9619 12.6466 71.7716 12.997Z" fill="#190600"/>
<path d="M84.996 14.0653C84.6218 14.3263 84.1954 14.4575 83.7175 14.4575C83.2939 14.4575 82.9054 14.3519 82.5534 14.14C82.2 13.9296 81.9267 13.6386 81.7314 13.272C81.536 12.9054 81.438 12.4941 81.438 12.0374C81.438 11.5807 81.536 11.1532 81.7314 10.7852C81.9267 10.4186 82.2007 10.129 82.5534 9.91716C82.9061 9.70675 83.2946 9.60044 83.7175 9.60044C84.1954 9.60044 84.6211 9.73094 84.996 9.99267C85.358 10.2449 85.6263 10.588 85.8009 11.0227C85.8116 11.0499 85.8374 11.0682 85.8667 11.0682H87.9279C87.9737 11.0682 88.0088 11.0242 87.9981 10.978C87.8414 10.2933 87.5602 9.69722 87.1545 9.19135C86.7489 8.68549 86.218 8.26246 85.6156 7.98974C85.0132 7.71701 84.38 7.58064 83.7182 7.58064C82.9362 7.58064 82.2036 7.76686 81.5196 8.14003C80.8356 8.51247 80.2869 9.03813 79.8748 9.71701C79.462 10.3959 79.2559 11.1686 79.2559 12.0367C79.2559 12.9047 79.462 13.6613 79.8748 14.3402C80.2869 15.0176 80.8356 15.5433 81.5196 15.9172C82.2036 16.2896 82.9362 16.4751 83.7182 16.4751C84.38 16.4751 85.0132 16.3395 85.6156 16.066C86.218 15.794 86.731 15.3937 87.1545 14.8651C87.5602 14.3593 87.8414 13.7632 87.9981 13.077C88.0088 13.0308 87.9737 12.9868 87.9279 12.9868H85.8667C85.8374 12.9868 85.8116 13.0051 85.8009 13.0323C85.6263 13.467 85.358 13.8101 84.996 14.0638V14.0653Z" fill="#190600"/>
<path d="M16.0683 10.4347C16.0683 9.28952 15.7964 8.25506 15.2541 7.33131C14.7104 6.40755 13.9756 5.68687 13.0477 5.16928C12.119 4.65168 11.1116 4.39435 10.0256 4.39435C8.93951 4.39435 7.93286 4.65241 7.0042 5.17001C6.07554 5.68761 5.34291 6.40902 4.8056 7.33204C4.2683 8.25506 4 9.29026 4 10.4347C4 11.5791 4.2683 12.6158 4.8056 13.5395C5.34291 14.4633 6.07625 15.1832 7.0042 15.7001C7.93286 16.2177 8.93951 16.4758 10.0256 16.4758C11.1116 16.4758 12.1183 16.2177 13.0469 15.7001C13.3882 15.5095 13.7037 15.2917 13.9928 15.0461C14.0214 15.0219 14.0622 15.0241 14.0886 15.0505L15.8687 16.8746C15.8966 16.9032 15.9417 16.9032 15.9696 16.8746L17.2882 15.5234C17.3161 15.4948 17.3161 15.4486 17.2882 15.42L15.3643 13.4486C15.3421 13.4259 15.3371 13.39 15.3529 13.3614C15.8286 12.4831 16.0676 11.508 16.0676 10.434L16.0683 10.4347ZM13.2508 12.42C13.165 12.5762 13.0691 12.7221 12.9668 12.8599C12.9403 12.8951 12.8895 12.898 12.8595 12.8665L10.3103 10.2543C10.2824 10.2257 10.2373 10.2257 10.2094 10.2543L9.85958 10.6128C9.83168 10.6414 9.83168 10.6876 9.85958 10.7162L12.4223 13.3423C12.4517 13.3724 12.4502 13.423 12.4181 13.4508C12.2628 13.585 12.0954 13.706 11.9151 13.8145C11.3506 14.1539 10.7203 14.3225 10.0256 14.3225C9.33086 14.3225 8.717 14.1539 8.15251 13.8145C7.5873 13.475 7.14228 13.0102 6.81675 12.4193C6.49122 11.8299 6.32809 11.1686 6.32809 10.434C6.32809 9.69935 6.49122 9.03806 6.81675 8.44861C7.143 7.85917 7.5873 7.39436 8.15251 7.05491C8.71628 6.71547 9.34159 6.54538 10.0256 6.54538C10.7095 6.54538 11.3506 6.71547 11.9151 7.05491C12.4789 7.39436 12.9246 7.85917 13.2501 8.44861C13.5757 9.03806 13.7388 9.70082 13.7388 10.434C13.7388 11.1671 13.5757 11.8299 13.2501 12.4193L13.2508 12.42Z" fill="#190600"/>
<path d="M78.3739 5.39927C78.3739 6.17206 77.7625 6.79853 77.0084 6.79853C76.2542 6.79853 75.6428 6.17206 75.6428 5.39927C75.6428 4.62647 76.2542 4 77.0084 4C77.7625 4 78.3739 4.62647 78.3739 5.39927Z" fill="#190600"/>
</svg>
